<svg xmlns="http://www.w3.org/2000/svg" version="1.1" xmlns:xlink="http://www.w3.org/1999/xlink" xmlns:svgjs="http://svgjs.dev/svgjs" width="1500" height="1500" viewBox="0 0 1500 1500"><rect width="1500" height="1500" fill="#000000"></rect><g transform="matrix(0.6666666666666666,0,0,0.6666666666666666,248.7765957446809,429.4194411092671)"><svg viewBox="0 0 376 241" data-background-color="#ffffff" preserveAspectRatio="xMidYMid meet" height="961" width="1500" xmlns="http://www.w3.org/2000/svg" xmlns:xlink="http://www.w3.org/1999/xlink"><g id="tight-bounds" transform="matrix(1,0,0,1,0.46023999999999887,0.09312900000000468)"><svg viewBox="0 0 375.07953 240.813872" height="240.813872" width="375.07953"><g><svg></svg></g><g><svg viewBox="0 0 375.07953 240.813872" height="240.813872" width="375.07953"><g transform="matrix(1,0,0,1,-10.22024,-6.3861300000000085)"><path d="M10.22 240.814v-234.428h375.08v234.428l-26.864 0v-3.266h23.598v-227.896h-368.548v227.896l23.598 0 0 3.266z" fill="#ffffff" fill-rule="nonzero" stroke="none" stroke-width="1" stroke-linecap="butt" stroke-linejoin="miter" stroke-miterlimit="10" stroke-dasharray="" stroke-dashoffset="0" font-family="none" font-weight="none" font-size="none" text-anchor="none" style="mix-blend-mode: normal" data-fill-palette-color="tertiary"></path><g><path transform="translate(46.66591,246.94271) scale(0.42882,0.42882)" d="M16 0h-4.75v-30.8h-10.75v-4.2h26.25v4.2h-10.75zM36.5 0h-4.75v-35h4.75v14.95h17.25v-14.95h4.75v35h-4.75v-15.95h-17.25zM88.5 0h-21v-35h21v4.1h-16.25v10.65h14v4h-14v12.15h16.25zM121.9 0h-5.9l-9.5-33.85 4.7-1.5 7.9 30.3 7.45-26.3h5.95l7.4 26.3 7.85-30.15 4.4 1.35-9.45 33.85h-5.9l-7.4-26.3zM183.55-1.25l-4.35 1.75-3.9-10h-16.2l-3.9 9.9-4.05-1.65 13.7-33.75h5.2zM167.2-30.3l-6.6 16.8h13.15zM213.4-1.5l-4.45 2.1-4.35-9.5c-1.1-2.367-2.483-4.05-4.15-5.05-1.667-1-3.8-1.5-6.4-1.5v0h-0.75v15.45h-4.75v-34.9c1.767-0.167 3.46-0.29 5.08-0.37 1.613-0.087 3.337-0.13 5.17-0.13v0c4.267 0 7.477 0.867 9.63 2.6 2.147 1.733 3.22 3.967 3.22 6.7v0c0 2.433-0.723 4.39-2.17 5.87-1.453 1.487-3.547 2.597-6.28 3.33v0c0.9 0.4 1.7 0.873 2.4 1.42 0.7 0.553 1.377 1.287 2.03 2.2 0.647 0.92 1.303 2.113 1.97 3.58v0zM193.3-31.2v11.75h5.5c2.4 0 4.35-0.533 5.85-1.6 1.5-1.067 2.25-2.6 2.25-4.6v0c0-1.667-0.7-3.043-2.1-4.13-1.4-1.08-3.4-1.62-6-1.62v0c-1.133 0-2.15 0.017-3.05 0.05-0.9 0.033-1.717 0.083-2.45 0.15zM240.4 0h-21v-35h21v4.1h-16.25v10.65h14v4h-14v12.15h16.25zM251.9 0h-4.75v-35h4.75v14.95h17.25v-14.95h4.75v35h-4.75v-15.95h-17.25zM297.4 0.6v0c-2.6 0-4.917-0.477-6.95-1.43-2.033-0.947-3.76-2.247-5.18-3.9-1.413-1.647-2.497-3.57-3.25-5.77-0.747-2.2-1.12-4.55-1.12-7.05v0c0-3.433 0.66-6.51 1.98-9.23 1.313-2.713 3.203-4.863 5.67-6.45 2.467-1.58 5.417-2.37 8.85-2.37v0c2.567 0 4.873 0.467 6.92 1.4 2.053 0.933 3.797 2.233 5.23 3.9 1.433 1.667 2.523 3.583 3.27 5.75 0.753 2.167 1.13 4.5 1.13 7v0c0 2.5-0.377 4.85-1.13 7.05-0.747 2.2-1.837 4.123-3.27 5.77-1.433 1.653-3.167 2.953-5.2 3.9-2.033 0.953-4.35 1.43-6.95 1.43zM297.4-3.5v0c2.567 0 4.717-0.617 6.45-1.85 1.733-1.233 3.04-2.91 3.92-5.03 0.887-2.113 1.33-4.503 1.33-7.17v0c0-1.8-0.267-3.533-0.8-5.2-0.533-1.667-1.3-3.16-2.3-4.48-1-1.313-2.227-2.353-3.68-3.12-1.447-0.767-3.087-1.15-4.92-1.15v0c-2.433 0-4.523 0.617-6.27 1.85-1.753 1.233-3.087 2.9-4 5-0.92 2.1-1.38 4.467-1.38 7.1v0c0 1.8 0.257 3.54 0.77 5.22 0.52 1.687 1.28 3.197 2.28 4.53 1 1.333 2.223 2.383 3.67 3.15 1.453 0.767 3.097 1.15 4.93 1.15zM333.15 0.6v0c-4.033 0-7.2-1.2-9.5-3.6-2.3-2.4-3.45-5.833-3.45-10.3v0-21.7h4.75v20.95c0 3.333 0.683 5.917 2.05 7.75 1.367 1.833 3.417 2.75 6.15 2.75v0c2.833 0 4.95-0.893 6.35-2.68 1.4-1.78 2.1-4.387 2.1-7.82v0-20.95h4.6v21.5c0 2.933-0.543 5.457-1.63 7.57-1.08 2.12-2.597 3.74-4.55 4.86-1.947 1.113-4.237 1.67-6.87 1.67zM363.15 0.6v0c-2.433 0-4.65-0.327-6.65-0.98-2-0.647-3.683-1.503-5.05-2.57v0l2.4-4c1.2 1 2.55 1.817 4.05 2.45 1.5 0.633 3.25 0.95 5.25 0.95v0c2.4 0 4.3-0.5 5.7-1.5 1.4-1 2.1-2.35 2.1-4.05v0c0-0.967-0.2-1.827-0.6-2.58-0.4-0.747-1.177-1.48-2.33-2.2-1.147-0.713-2.837-1.487-5.07-2.32v0c-2.4-0.933-4.317-1.877-5.75-2.83-1.433-0.947-2.457-2.03-3.07-3.25-0.62-1.213-0.93-2.653-0.93-4.32v0c0-1.667 0.457-3.177 1.37-4.53 0.92-1.347 2.273-2.43 4.06-3.25 1.78-0.813 3.937-1.22 6.47-1.22v0c2.067 0 3.927 0.207 5.58 0.62 1.647 0.42 3.253 1.013 4.82 1.78v0l-1.75 4.05c-1.133-0.667-2.46-1.227-3.98-1.68-1.513-0.447-3.103-0.67-4.77-0.67v0c-2.2 0-3.933 0.433-5.2 1.3-1.267 0.867-1.9 1.983-1.9 3.35v0c0 0.867 0.183 1.633 0.55 2.3 0.367 0.667 1.093 1.317 2.18 1.95 1.08 0.633 2.703 1.35 4.87 2.15v0c2.6 0.967 4.66 1.983 6.18 3.05 1.513 1.067 2.587 2.223 3.22 3.47 0.633 1.253 0.95 2.68 0.95 4.28v0c0 2.167-0.543 4.017-1.63 5.55-1.08 1.533-2.58 2.7-4.5 3.5-1.913 0.8-4.103 1.2-6.57 1.2zM403.85 0h-21v-35h21v4.1h-16.25v10.65h14v4h-14v12.15h16.25zM430.1 0h-4.5v-35h6.65l9.7 22.15 9.55-22.15h6.8v35h-4.75v-28.95l-9.35 21.05h-4.7l-9.4-21.05zM495.7-1.25l-4.35 1.75-3.9-10h-16.2l-3.9 9.9-4.05-1.65 13.7-33.75h5.2zM479.35-30.3l-6.6 16.8h13.15zM511.65 0.6v0c-2.7 0-5.1-0.7-7.2-2.1-2.1-1.4-3.75-3.393-4.95-5.98-1.2-2.58-1.8-5.62-1.8-9.12v0c0-3.733 0.633-7.027 1.9-9.88 1.267-2.847 3.09-5.08 5.47-6.7 2.387-1.613 5.263-2.42 8.63-2.42v0c2.167 0 4.1 0.267 5.8 0.8 1.7 0.533 3.3 1.217 4.8 2.05v0l-1.75 3.95c-1.4-0.767-2.827-1.4-4.28-1.9-1.447-0.5-3.053-0.75-4.82-0.75v0c-2.1 0-3.967 0.557-5.6 1.67-1.633 1.12-2.927 2.763-3.88 4.93-0.947 2.167-1.42 4.817-1.42 7.95v0c0 2.8 0.433 5.19 1.3 7.17 0.867 1.987 2.067 3.513 3.6 4.58 1.533 1.067 3.3 1.6 5.3 1.6v0c1.867 0 3.523-0.393 4.97-1.18 1.453-0.78 2.597-1.587 3.43-2.42v0-7.65h-7.25v-3.75h11.75v18.55h-4.2v-3.5c-1.167 1.033-2.583 1.973-4.25 2.82-1.667 0.853-3.517 1.28-5.55 1.28zM538.15 0h-4.75v-35h4.75zM560.6 0.6v0c-3.033 0-5.717-0.727-8.05-2.18-2.333-1.447-4.15-3.513-5.45-6.2-1.3-2.68-1.95-5.87-1.95-9.57v0c0-3.567 0.66-6.727 1.98-9.48 1.313-2.747 3.18-4.893 5.6-6.44 2.413-1.553 5.237-2.33 8.47-2.33v0c1.667 0 3.183 0.157 4.55 0.47 1.367 0.32 2.65 0.763 3.85 1.33v0l-1.45 4c-1.033-0.5-2.09-0.9-3.17-1.2-1.087-0.3-2.363-0.45-3.83-0.45v0c-2.133 0-4.043 0.55-5.73 1.65-1.68 1.1-3.003 2.683-3.97 4.75-0.967 2.067-1.45 4.567-1.45 7.5v0c0 2.8 0.473 5.25 1.42 7.35 0.953 2.1 2.273 3.733 3.96 4.9 1.68 1.167 3.603 1.75 5.77 1.75v0c1.633 0 3.05-0.2 4.25-0.6 1.2-0.4 2.367-0.917 3.5-1.55v0l1.45 3.95c-1.233 0.667-2.64 1.223-4.22 1.67-1.587 0.453-3.43 0.68-5.53 0.68zM603.8 0.6v0c-2.7 0-5.1-0.7-7.2-2.1-2.1-1.4-3.75-3.393-4.95-5.98-1.2-2.58-1.8-5.62-1.8-9.12v0c0-3.733 0.633-7.027 1.9-9.88 1.267-2.847 3.093-5.08 5.48-6.7 2.38-1.613 5.253-2.42 8.62-2.42v0c2.167 0 4.1 0.267 5.8 0.8 1.7 0.533 3.3 1.217 4.8 2.05v0l-1.75 3.95c-1.4-0.767-2.823-1.4-4.27-1.9-1.453-0.5-3.063-0.75-4.83-0.75v0c-2.1 0-3.967 0.557-5.6 1.67-1.633 1.12-2.923 2.763-3.87 4.93-0.953 2.167-1.43 4.817-1.43 7.95v0c0 2.8 0.433 5.19 1.3 7.17 0.867 1.987 2.067 3.513 3.6 4.58 1.533 1.067 3.3 1.6 5.3 1.6v0c1.867 0 3.527-0.393 4.98-1.18 1.447-0.78 2.587-1.587 3.42-2.42v0-7.65h-7.25v-3.75h11.75v18.55h-4.2v-3.5c-1.167 1.033-2.583 1.973-4.25 2.82-1.667 0.853-3.517 1.28-5.55 1.28zM653.95-1.25l-4.35 1.75-3.9-10h-16.2l-3.9 9.9-4.05-1.65 13.7-33.75h5.2zM637.6-30.3l-6.6 16.8h13.15zM667.45 0h-4.75v-30.8h-10.75v-4.2h26.25v4.2h-10.75zM704.2 0h-21v-35h21v4.1h-16.25v10.65h14v4h-14v12.15h16.25z" fill="#ffffff" fill-rule="nonzero" stroke="none" stroke-width="1" stroke-linecap="butt" stroke-linejoin="miter" stroke-miterlimit="10" stroke-dasharray="" stroke-dashoffset="0" font-family="none" font-weight="none" font-size="none" text-anchor="none" style="mix-blend-mode: normal" data-fill-palette-color="secondary" id="text-1"></path></g></g><g transform="matrix(1,0,0,1,29.33176499999999,68.55136527581755)"><svg viewBox="0 0 316.416 103.71114144836493" height="103.71114144836493" width="316.416"><g><svg viewBox="0 0 538.2351526351009 176.4164329472" height="103.71114144836493" width="316.416"><g transform="matrix(1,0,0,1,0,21.480646448524112)"><svg viewBox="0 0 316.416 133.45514005015178" height="133.45514005015178" width="316.416"><g id="textblocktransform"><svg viewBox="0 0 316.416 133.45514005015178" height="133.45514005015178" width="316.416" id="textblock"><g><svg viewBox="0 0 316.416 133.45514005015178" height="133.45514005015178" width="316.416"><g transform="matrix(1,0,0,1,0,0)"><svg width="316.416" viewBox="53.45 -36.01 184.99 75.02000000000001" height="133.45514005015178" data-palette-color="#0074d9"><svg></svg><svg></svg><g class="wordmark-text-0" data-fill-palette-color="primary" id="text-0"><path transform="translate(48.96,0)" d="M4.49-5v-25c0-0.687 0.13-1.337 0.39-1.95 0.26-0.607 0.62-1.133 1.08-1.58 0.453-0.447 0.987-0.807 1.6-1.08 0.607-0.267 1.253-0.4 1.94-0.4v0h18.99c0.687 0 1.333 0.133 1.94 0.4 0.613 0.273 1.147 0.633 1.6 1.08 0.453 0.447 0.813 0.973 1.08 1.58 0.26 0.613 0.39 1.263 0.39 1.95v0 4.51h-5.01v-4.51h-18.99v25h18.99v-4.5h5.01v4.5c0 0.68-0.13 1.327-0.39 1.94-0.267 0.607-0.627 1.14-1.08 1.6-0.453 0.453-0.987 0.81-1.6 1.07-0.607 0.26-1.253 0.39-1.94 0.39v0h-18.99c-0.687 0-1.333-0.13-1.94-0.39-0.613-0.26-1.147-0.617-1.6-1.07-0.46-0.46-0.82-0.993-1.08-1.6-0.26-0.613-0.39-1.26-0.39-1.94zM63.5-21.19v16.38c0 0.667-0.127 1.293-0.38 1.88-0.253 0.587-0.593 1.097-1.02 1.53-0.433 0.427-0.94 0.767-1.52 1.02-0.573 0.253-1.193 0.38-1.86 0.38v0h-12.92c-0.653 0-1.27-0.127-1.85-0.38-0.587-0.253-1.097-0.593-1.53-1.02-0.433-0.433-0.777-0.943-1.03-1.53-0.247-0.587-0.37-1.213-0.37-1.88v0-16.38c0-0.667 0.123-1.293 0.37-1.88 0.253-0.587 0.597-1.097 1.03-1.53 0.433-0.427 0.943-0.767 1.53-1.02 0.58-0.253 1.197-0.38 1.85-0.38v0h12.92c0.667 0 1.287 0.127 1.86 0.38 0.58 0.253 1.087 0.593 1.52 1.02 0.427 0.433 0.767 0.943 1.02 1.53 0.253 0.587 0.38 1.213 0.38 1.88zM58.72-21.19h-12.92v16.38h12.92zM94.51-21.19v21.19h-4.81v-21.19h-13.41v21.19h-4.78v-26h4.78v4.59c0.033-0.633 0.18-1.233 0.44-1.8 0.26-0.56 0.607-1.047 1.04-1.46 0.433-0.413 0.933-0.74 1.5-0.98 0.573-0.233 1.183-0.35 1.83-0.35v0h8.6c0.667 0 1.293 0.127 1.88 0.38 0.587 0.253 1.093 0.593 1.52 1.02 0.433 0.433 0.777 0.943 1.03 1.53 0.253 0.587 0.38 1.213 0.38 1.88zM101-21.19v-4.81h6.35v-8.01h4.81v8.01h8.54v4.81h-8.54v16.38h8.54v4.81h-8.54c-0.653 0-1.273-0.127-1.86-0.38-0.587-0.253-1.1-0.593-1.54-1.02-0.433-0.433-0.777-0.943-1.03-1.53-0.253-0.587-0.38-1.213-0.38-1.88v0-16.38zM143.41-21.19h-9.91v21.19h-4.79v-26h4.79v4.59c0.027-0.633 0.173-1.233 0.44-1.8 0.26-0.56 0.603-1.047 1.03-1.46 0.433-0.413 0.933-0.74 1.5-0.98 0.573-0.233 1.187-0.35 1.84-0.35v0h5.1c0.667 0 1.29 0.127 1.87 0.38 0.573 0.253 1.08 0.593 1.52 1.02 0.44 0.433 0.787 0.943 1.04 1.53 0.253 0.587 0.38 1.213 0.38 1.88v0 4.39h-4.81zM176.68-21.19v16.38c0 0.667-0.123 1.293-0.37 1.88-0.253 0.587-0.597 1.097-1.03 1.53-0.433 0.427-0.937 0.767-1.51 1.02-0.58 0.253-1.203 0.38-1.87 0.38v0h-12.92c-0.647 0-1.263-0.127-1.85-0.38-0.587-0.253-1.097-0.593-1.53-1.02-0.427-0.433-0.767-0.943-1.02-1.53-0.253-0.587-0.38-1.213-0.38-1.88v0-16.38c0-0.667 0.127-1.293 0.38-1.88 0.253-0.587 0.593-1.097 1.02-1.53 0.433-0.427 0.943-0.767 1.53-1.02 0.587-0.253 1.203-0.38 1.85-0.38v0h12.92c0.667 0 1.29 0.127 1.87 0.38 0.573 0.253 1.077 0.593 1.51 1.02 0.433 0.433 0.777 0.943 1.03 1.53 0.247 0.587 0.37 1.213 0.37 1.88zM171.9-21.19h-12.92v16.38h12.92zM184.69-36.01h4.79v36.01h-4.79z" fill="#ffffff" fill-rule="nonzero" stroke="none" stroke-width="1" stroke-linecap="butt" stroke-linejoin="miter" stroke-miterlimit="10" stroke-dasharray="" stroke-dashoffset="0" font-family="none" font-weight="none" font-size="none" text-anchor="none" style="mix-blend-mode: normal" data-fill-palette-color="primary" opacity="1"></path><path transform="translate(70.73,39.01)" d="M4.49 0v-35.01h25.51v5.01h-20.5v10h17.5v5.01h-17.5v14.99zM51.2-21.19h-9.92v21.19h-4.78v-26h4.78v4.59c0.033-0.633 0.18-1.233 0.44-1.8 0.26-0.56 0.607-1.047 1.04-1.46 0.433-0.413 0.933-0.74 1.5-0.98 0.573-0.233 1.183-0.35 1.83-0.35v0h5.11c0.667 0 1.287 0.127 1.86 0.38 0.58 0.253 1.09 0.593 1.53 1.02 0.44 0.433 0.787 0.943 1.04 1.53 0.253 0.587 0.38 1.213 0.38 1.88v0 4.39h-4.81zM83.98-21.19v10.64h-17.21v5.74h17.21v4.81h-17.21c-0.647 0-1.263-0.127-1.85-0.38-0.587-0.253-1.097-0.593-1.53-1.02-0.433-0.433-0.773-0.943-1.02-1.53-0.253-0.587-0.38-1.213-0.38-1.88v0-16.38c0-0.667 0.127-1.293 0.38-1.88 0.247-0.587 0.587-1.097 1.02-1.53 0.433-0.427 0.943-0.767 1.53-1.02 0.587-0.253 1.203-0.38 1.85-0.38v0h12.4c0.673 0 1.3 0.127 1.88 0.38 0.587 0.253 1.097 0.593 1.53 1.02 0.433 0.433 0.777 0.943 1.03 1.53 0.247 0.587 0.37 1.213 0.37 1.88zM79.17-21.19h-12.4v5.83h12.4zM91.99-4.81v-6.54c0-0.667 0.127-1.29 0.38-1.87 0.253-0.58 0.597-1.09 1.03-1.53 0.427-0.44 0.933-0.783 1.52-1.03 0.587-0.253 1.207-0.38 1.86-0.38v0h12.4v-5.03h-15.7v-4.81h15.7c0.667 0 1.293 0.127 1.88 0.38 0.587 0.253 1.097 0.593 1.53 1.02 0.427 0.433 0.767 0.943 1.02 1.53 0.253 0.587 0.38 1.213 0.38 1.88v0 21.19h-4.81v-4.39c-0.047 0.6-0.21 1.167-0.49 1.7-0.273 0.54-0.627 1.01-1.06 1.41-0.433 0.4-0.927 0.713-1.48 0.94-0.553 0.227-1.14 0.34-1.76 0.34v0h-7.61c-0.653 0-1.273-0.127-1.86-0.38-0.587-0.253-1.093-0.593-1.52-1.02-0.433-0.433-0.777-0.943-1.03-1.53-0.253-0.587-0.38-1.213-0.38-1.88zM96.78-11.35v6.54h12.4v-6.54zM145.95 0h-6.77l-12.4-11.11v11.11h-4.78v-36.01h4.78v20.26l11.4-10.25h6.77l-13.97 12.55z" fill="#ffffff" fill-rule="nonzero" stroke="none" stroke-width="1" stroke-linecap="butt" stroke-linejoin="miter" stroke-miterlimit="10" stroke-dasharray="" stroke-dashoffset="0" font-family="none" font-weight="none" font-size="none" text-anchor="none" style="mix-blend-mode: normal" data-fill-palette-color="secondary" opacity="1"></path></g></svg></g></svg></g></svg></g></svg></g><g transform="matrix(1,0,0,1,330.95735935510095,0)"><svg viewBox="0 0 207.27779328 176.4164329472" height="176.4164329472" width="207.27779328"><g><svg xmlns="http://www.w3.org/2000/svg" xmlns:xlink="http://www.w3.org/1999/xlink" version="1.1" x="0" y="0" viewBox="5 11.7 90 76.6" style="enable-background:new 0 0 100 100;" xml:space="preserve" height="176.4164329472" width="207.27779328" class="icon-icon-0" data-fill-palette-color="accent" id="icon-0"><g fill="#0074d9" data-fill-palette-color="accent"><path d="M91.7 85.8V82.5H95V80H5V82.5H8.1V85.8H5V88.3H95V85.8zM23.5 85.8H10.5V82.5H23.5zM49.2 85.8H26V82.5H49.3V85.8zM75.1 85.8H51.6V82.5H75.1zM89.3 85.8H77.5V82.5H89.2V85.8z" fill="#ffffff" data-fill-palette-color="accent"></path><path d="M35.6 57.5H11.9V78H35.5V57.5zM12.9 77V58.7L34.1 77zM34.6 76.8L13.4 58.5H22.1V62H25.8V58.5H34.5V76.8z" fill="#ffffff" data-fill-palette-color="accent"></path><path d="M61.9 57.5H38.3V78H61.9zM39.3 77V58.7L60.4 77zM60.9 76.8L39.7 58.5H48.4V62H52.1V58.5H60.8V76.8z" fill="#ffffff" data-fill-palette-color="accent"></path><path d="M61.9 34.7H38.3V55.3H61.9zM39.3 54.2V35.9L60.5 54.2zM60.9 54L39.7 35.7H48.4V39.2H52.1V35.7H60.8V54z" fill="#ffffff" data-fill-palette-color="accent"></path><path d="M88.1 57.5H64.4V78H88V57.5zM65.4 77V58.7L86.6 77zM87.1 76.8L65.9 58.5H74.6V62H78.3V58.5H87V76.8z" fill="#ffffff" data-fill-palette-color="accent"></path><path d="M88.1 34.7H64.4V55.3H88V34.7zM65.4 54.2V35.9L86.6 54.2zM87.1 54L65.9 35.7H74.6V39.2H78.3V35.7H87V54z" fill="#ffffff" data-fill-palette-color="accent"></path><path d="M88.1 11.7H64.4V32.3H88V11.7zM65.4 31.3V13L86.6 31.3zM87.1 31L65.9 12.7H74.4V16.7H78.1V12.7H87V31z" fill="#ffffff" data-fill-palette-color="accent"></path></g></svg></g></svg></g></svg></g></svg></g></svg></g><defs></defs></svg><rect width="375.07953" height="240.813872" fill="none" stroke="none" visibility="hidden"></rect></g></svg></g></svg>