<?xml version="1.0" encoding="UTF-8" standalone="no"?>
<svg
   xmlns:dc="http://purl.org/dc/elements/1.1/"
   xmlns:cc="http://creativecommons.org/ns#"
   xmlns:rdf="http://www.w3.org/1999/02/22-rdf-syntax-ns#"
   xmlns:svg="http://www.w3.org/2000/svg"
   xmlns="http://www.w3.org/2000/svg"
   viewBox="0 0 2267.72 755.90533"
   height="755.90533"
   width="2267.72"
   xml:space="preserve"
   id="svg2"
   version="1.1"><metadata
     id="metadata8"><rdf:RDF><cc:Work
         rdf:about=""><dc:format>image/svg+xml</dc:format><dc:type
           rdf:resource="http://purl.org/dc/dcmitype/StillImage" /></cc:Work></rdf:RDF></metadata><defs
     id="defs6"><clipPath
       id="clipPath18"
       clipPathUnits="userSpaceOnUse"><path
         id="path16"
         d="M 0,566.929 H 1700.787 V 0 H 0 Z" /></clipPath></defs><g
     transform="matrix(1.3333333,0,0,-1.3333333,0,755.90533)"
     id="g10"><g
       id="g12"><g
         clip-path="url(#clipPath18)"
         id="g14"><g
           transform="translate(646.8032,262.7033)"
           id="g20"><path
             id="path22"
             style="fill:#203a66;fill-opacity:1;fill-rule:nonzero;stroke:none"
             d="m 0,0 c -35.478,0 -52.189,18.767 -52.189,56.559 v 117.488 h 31.108 V 59.643 c 0,-20.566 8.74,-31.106 27.509,-31.106 H 136.255 V 0 Z" /></g><path
           id="path24"
           style="fill:#203a66;fill-opacity:1;fill-rule:nonzero;stroke:none"
           d="m 864.316,436.75 h 31.107 V 262.703 h -31.107 z" /><g
           transform="translate(1070.0011,262.7033)"
           id="g26"><path
             id="path28"
             style="fill:#203a66;fill-opacity:1;fill-rule:nonzero;stroke:none"
             d="m 0,0 v 145.51 h -93.321 v 28.537 h 217.75 V 145.51 H 30.85 L 30.85,0 Z" /></g><g
           transform="translate(341.6256,262.7033)"
           id="g30"><path
             id="path32"
             style="fill:#e81d24;fill-opacity:1;fill-rule:nonzero;stroke:none"
             d="m 0,0 c -35.991,0 -52.704,18.766 -52.704,56.56 v 60.926 c 0,37.795 16.713,56.561 52.704,56.561 H 156.307 V 145.51 H 6.428 c -19.284,0 -28.024,-10.285 -28.024,-31.108 V 59.645 c 0,-20.569 8.74,-31.108 28.024,-31.108 H 156.307 V 0 Z" /></g><path
           id="path34"
           style="fill:#e81d24;fill-opacity:1;fill-rule:nonzero;stroke:none"
           d="m 318.94,335.458 h 178.993 v 28.537 H 318.94 Z" /><g
           transform="translate(1296.0959,408.213)"
           id="g36"><path
             id="path38"
             style="fill:#e81d24;fill-opacity:1;fill-rule:nonzero;stroke:none"
             d="m 0,0 v 28.537 h 156.307 c 35.992,0 52.704,-18.766 52.704,-56.561 v -60.925 c 0,-37.795 -16.712,-56.561 -52.704,-56.561 H 0 v 28.537 h 149.88 c 19.283,0 28.023,10.539 28.023,31.108 v 54.757 C 177.903,-10.285 169.163,0 149.88,0" /></g><path
           id="path40"
           style="fill:#e81d24;fill-opacity:1;fill-rule:nonzero;stroke:none"
           d="m 1475.089,335.458 h -178.993 v 28.537 h 178.993 z" /><g
           transform="translate(320.3229,130.1793)"
           id="g42"><path
             id="path44"
             style="fill:#203a66;fill-opacity:1;fill-rule:nonzero;stroke:none"
             d="m 0,0 c -17.311,0 -25.348,9.027 -25.348,27.203 v 29.303 c 0,18.177 8.037,27.2 25.348,27.2 H 75.176 V 69.983 H 3.091 c -9.273,0 -13.477,-4.945 -13.477,-14.961 V 28.684 c 0,-9.889 4.204,-14.96 13.477,-14.96 H 75.176 V 0 Z" /></g><g
           transform="translate(501.2205,167.2718)"
           id="g46"><path
             id="path48"
             style="fill:#203a66;fill-opacity:1;fill-rule:nonzero;stroke:none"
             d="m 0,0 h -68.624 c -6.923,0 -9.519,-3.46 -9.519,-9.889 v -4.701 c 0,-6.552 2.596,-10.016 9.519,-10.016 H 0 Z m -73.939,-37.092 c -13.973,0 -19.043,6.676 -19.043,18.919 v 10.754 c 0,12.243 5.07,18.92 19.043,18.92 H 0 v 6.428 C 0,27.946 -4.328,32.89 -13.354,32.89 h -77.525 v 13.724 h 80.615 c 17.188,0 25.101,-9.023 25.101,-27.2 v -56.506 z" /></g><g
           transform="translate(622.2737,191.5065)"
           id="g50"><path
             id="path52"
             style="fill:#203a66;fill-opacity:1;fill-rule:nonzero;stroke:none"
             d="m 0,0 c 0,6.429 -2.598,9.892 -9.521,9.892 h -68.006 v -28.931 h 66.77 c 6.429,0 10.757,2.347 10.757,9.765 z m 3.338,-61.327 c -1.361,0.989 -2.101,2.474 -2.101,5.439 v 15.456 c 0,7.171 -4.699,9.892 -11.624,9.892 h -67.14 v -30.787 h -14.96 v 83.706 h 88.283 c 13.971,0 19.041,-6.676 19.041,-18.915 V -6.924 c 0,-14.218 -7.79,-16.445 -12.86,-17.063 5.565,-0.495 14.097,-3.213 14.097,-16.445 v -15.456 c 0,-2.965 0.866,-4.45 2.101,-5.439 z" /></g><g
           transform="translate(742.832,191.5065)"
           id="g54"><path
             id="path56"
             style="fill:#203a66;fill-opacity:1;fill-rule:nonzero;stroke:none"
             d="m 0,0 c 0,6.429 -2.598,9.892 -9.521,9.892 h -68.006 v -28.931 h 66.77 c 6.429,0 10.757,2.347 10.757,9.765 z m 3.338,-61.327 c -1.361,0.989 -2.101,2.474 -2.101,5.439 v 15.456 c 0,7.171 -4.699,9.892 -11.624,9.892 h -67.14 v -30.787 h -14.96 v 83.706 h 88.283 c 13.971,0 19.041,-6.676 19.041,-18.915 V -6.924 c 0,-14.218 -7.79,-16.445 -12.86,-17.063 5.565,-0.495 14.097,-3.213 14.097,-16.445 v -15.456 c 0,-2.965 0.866,-4.45 2.101,-5.439 z" /></g><g
           transform="translate(862.8956,185.2013)"
           id="g58"><path
             id="path60"
             style="fill:#203a66;fill-opacity:1;fill-rule:nonzero;stroke:none"
             d="M 0,0 C 0,10.016 -4.204,14.961 -13.354,14.961 H -64.543 C -73.816,14.961 -78.02,10.016 -78.02,0 v -26.338 c 0,-9.889 4.204,-14.96 13.477,-14.96 h 51.189 c 9.15,0 13.354,5.071 13.354,14.96 z m -67.634,-55.022 c -17.311,0 -25.348,9.027 -25.348,27.203 V 1.484 c 0,18.177 8.037,27.2 25.348,27.2 h 57.372 c 17.309,0 25.223,-9.023 25.223,-27.2 v -29.303 c 0,-18.176 -7.914,-27.203 -25.223,-27.203 z" /></g><g
           transform="translate(889.8551,130.1793)"
           id="g62"><path
             id="path64"
             style="fill:#203a66;fill-opacity:1;fill-rule:nonzero;stroke:none"
             d="M 0,0 V 10.387 L 78.638,71.591 H 0 V 83.706 H 102.007 V 73.323 L 25.717,11.872 h 76.29 V 0 Z" /></g><g
           transform="translate(1003.1187,130.1793)"
           id="g66"><path
             id="path68"
             style="fill:#203a66;fill-opacity:1;fill-rule:nonzero;stroke:none"
             d="M 0,0 V 10.387 L 78.638,71.591 H 0 V 83.706 H 102.007 V 73.323 L 25.717,11.872 h 76.29 V 0 Z" /></g><g
           transform="translate(1209.7336,191.5065)"
           id="g70"><path
             id="path72"
             style="fill:#203a66;fill-opacity:1;fill-rule:nonzero;stroke:none"
             d="M 0,0 C 0,6.429 -2.596,9.892 -9.521,9.892 H -68.5 c -6.924,0 -9.643,-3.463 -9.643,-9.892 v -15.084 h 68.622 c 6.925,0 9.521,3.587 9.521,10.016 z m -67.758,-61.327 c -17.311,0 -25.348,9.026 -25.348,27.203 V 3.464 c 0,12.239 5.194,18.915 19.29,18.915 h 69.612 c 14.095,0 19.041,-6.676 19.041,-18.915 V -7.79 c 0,-12.239 -4.946,-18.915 -19.041,-18.915 h -73.939 v -5.938 c 0,-9.889 4.204,-14.96 13.476,-14.96 h 77.403 v -13.724 z" /></g><g
           transform="translate(1330.7885,191.5065)"
           id="g74"><path
             id="path76"
             style="fill:#203a66;fill-opacity:1;fill-rule:nonzero;stroke:none"
             d="m 0,0 c 0,6.429 -2.596,9.892 -9.521,9.892 h -68.005 v -28.931 h 66.769 c 6.429,0 10.757,2.347 10.757,9.765 z m 3.338,-61.327 c -1.36,0.989 -2.101,2.474 -2.101,5.439 v 15.456 c 0,7.171 -4.699,9.892 -11.624,9.892 h -67.139 v -30.787 h -14.961 v 83.706 h 88.283 c 13.971,0 19.041,-6.676 19.041,-18.915 V -6.924 c 0,-14.218 -7.79,-16.445 -12.859,-17.063 5.564,-0.495 14.096,-3.213 14.096,-16.445 v -15.456 c 0,-2.965 0.866,-4.45 2.101,-5.439 z" /></g><path
           id="path78"
           style="fill:#203a66;fill-opacity:1;fill-rule:nonzero;stroke:none"
           d="m 1358.86,213.886 h 14.961 V 130.18 h -14.961 z" /><g
           transform="translate(1480.2804,167.2718)"
           id="g80"><path
             id="path82"
             style="fill:#203a66;fill-opacity:1;fill-rule:nonzero;stroke:none"
             d="m 0,0 h -68.624 c -6.923,0 -9.519,-3.46 -9.519,-9.889 v -4.701 c 0,-6.552 2.596,-10.016 9.519,-10.016 H 0 Z m -73.939,-37.092 c -13.973,0 -19.043,6.676 -19.043,18.919 v 10.754 c 0,12.243 5.07,18.92 19.043,18.92 H 0 v 6.428 C 0,27.946 -4.328,32.89 -13.354,32.89 h -77.525 v 13.724 h 80.615 c 17.188,0 25.101,-9.023 25.101,-27.2 v -56.506 z" /></g></g></g></g></svg>