<?xml version="1.0" encoding="UTF-8" standalone="no"?>
<svg
   xmlns:dc="http://purl.org/dc/elements/1.1/"
   xmlns:cc="http://creativecommons.org/ns#"
   xmlns:rdf="http://www.w3.org/1999/02/22-rdf-syntax-ns#"
   xmlns:svg="http://www.w3.org/2000/svg"
   xmlns="http://www.w3.org/2000/svg"
   viewBox="0 0 1856 1126.2933"
   height="1126.2933"
   width="1856"
   xml:space="preserve"
   id="svg2"
   version="1.1"><metadata
     id="metadata8"><rdf:RDF><cc:Work
         rdf:about=""><dc:format>image/svg+xml</dc:format><dc:type
           rdf:resource="http://purl.org/dc/dcmitype/StillImage" /></cc:Work></rdf:RDF></metadata><defs
     id="defs6"><clipPath
       id="clipPath18"
       clipPathUnits="userSpaceOnUse"><path
         id="path16"
         d="M 0,844.72 H 1392 V 0 H 0 Z" /></clipPath></defs><g
     transform="matrix(1.3333333,0,0,-1.3333333,0,1126.2933)"
     id="g10"><g
       id="g12"><g
         clip-path="url(#clipPath18)"
         id="g14"><g
           transform="translate(404.4687,393.5937)"
           id="g20"><path
             id="path22"
             style="fill:#e70021;fill-opacity:1;fill-rule:nonzero;stroke:none"
             d="m 0,0 c -16.65,0.002 -33.301,0.004 -49.951,0.006 10.563,15.453 21.127,30.906 31.691,46.359 16.972,0.013 33.944,0.027 50.916,0.041 C 21.771,30.937 10.885,15.469 0,0" /></g><g
           transform="translate(515.3333,468)"
           id="g24"><path
             id="path26"
             style="fill:#e70021;fill-opacity:1;fill-rule:nonzero;stroke:none"
             d="m 0,0 c 1.444,1.583 2.889,3.167 4.333,4.75 0.92,1.157 2.155,2.554 3.75,4 0.448,0.405 1.909,1.708 4.084,3.167 1.603,1.075 3.71,2.489 6.666,3.583 1.837,0.68 4.71,1.498 8.417,1.583 9.375,0.042 18.75,0.084 28.125,0.125 8.458,-0.014 16.917,-0.027 25.375,-0.041 0.794,0.057 3.289,0.136 5.75,-1.5 2.879,-1.915 3.667,-4.818 3.833,-5.5 -1.889,-12.5 -3.777,-25 -5.666,-37.5 C 53.194,-27.389 21.722,-27.444 -9.75,-27.5 -20.667,-43.056 -31.583,-58.611 -42.5,-74.167 H 76 c -5.819,-30.069 -11.639,-60.139 -17.458,-90.208 h 50 c 5.208,26.903 10.416,53.806 15.625,80.708 3.573,19.804 6.557,35.044 8.666,45.5 1.612,7.989 3.033,16.016 4.667,24 1.905,9.311 3.195,15.269 4.167,24.167 0.809,7.419 1.203,11.235 0.666,16.5 -0.097,0.951 -1.297,11.995 -5.666,19.333 -3.384,5.682 -10.268,16.834 -36.334,16.834 H 35 C 18.089,59.795 5.865,53.917 -1.667,49.5 -16.367,40.879 -26.321,30.122 -34.917,20.833 -40.606,14.685 -44.812,9.63 -46.667,7 -86.931,-50.104 -127.194,-107.208 -167.458,-164.312 h 51.531 C -77.285,-109.542 -38.642,-54.771 0,0" /></g><g
           transform="translate(934.5,468.25)"
           id="g28"><path
             id="path30"
             style="fill:#e70021;fill-opacity:1;fill-rule:nonzero;stroke:none"
             d="m 0,0 c -15.167,-33.833 -30.333,-67.667 -45.5,-101.5 -1.056,-2.323 -4.805,-9.786 -13.5,-14 -5.727,-2.775 -11.017,-2.889 -13.75,-2.75 -53.639,-0.056 -107.278,-0.111 -160.917,-0.167 20.953,45.167 41.905,90.334 62.858,135.5 C -116.31,17.056 -61.811,17.028 -7.312,17 -6.841,16.923 -1.528,15.956 0.875,10.875 3.488,5.35 0.162,0.24 0,0 M 52.688,29.812 C 51.416,36.292 48.784,40.941 47.5,43 41.542,52.55 33.137,56.718 29.812,58.313 23.67,61.259 17.892,62.298 13.563,62.625 -57.542,62.5 -128.646,62.375 -199.75,62.25 c 0.957,-1.495 1.914,-2.99 2.871,-4.485 -1.04,1.578 -2.081,3.157 -3.121,4.735 -34.167,-75.75 -68.333,-151.5 -102.5,-227.25 70.444,-0.056 140.889,-0.111 211.333,-0.167 9.153,0.795 22.295,2.976 36.917,9.167 6.238,2.641 17.672,7.562 29.75,18 2.565,2.217 9.677,8.586 16.875,18.625 7.075,9.867 11.313,19.206 13.875,26.125 11.75,25.917 23.5,51.833 35.25,77.75 1.883,3.752 4.441,9.205 7,16 1.665,4.422 2.542,6.617 3.25,9.5 0.983,4.002 2.621,10.988 0.938,19.562" /></g><g
           transform="translate(1055.125,485.125)"
           id="g32"><path
             id="path34"
             style="fill:#e70021;fill-opacity:1;fill-rule:nonzero;stroke:none"
             d="m 0,0 c 55.653,-0.125 111.306,-0.25 166.958,-0.375 0.742,-0.013 1.847,-0.119 3.084,-0.583 0.747,-0.281 3.36,-1.263 4.5,-3.75 0.681,-1.488 0.511,-2.806 0.25,-4.834 -0.184,-1.422 -0.638,-3.629 -1.917,-6.166 -4.62,-9.168 -3.2,-9.95 -6.917,-15.417 -1.945,-2.861 -4.266,-6.204 -8.583,-9 -3.834,-2.484 -7.406,-3.347 -9.5,-3.833 -4.769,-1.109 -8.844,-0.964 -11.5,-0.667 -50.056,-0.056 -100.111,-0.111 -150.167,-0.167 -6.889,-15.444 -13.777,-30.889 -20.666,-46.333 53.083,-0.097 106.166,-0.194 159.25,-0.292 1.331,-0.178 3.128,-0.608 4.958,-1.666 1.776,-1.027 2.685,-2.127 2.917,-2.417 0.296,-0.37 0.662,-0.835 0.958,-1.542 0.476,-1.136 0.449,-2.127 0.417,-2.958 -0.031,-0.787 -0.176,-2.045 -0.792,-3.5 -11.625,-25.764 -23.25,-51.528 -34.875,-77.292 h 48 c 10.5,23.056 21,46.111 31.5,69.167 1.146,2.562 2.292,5.125 3.437,7.687 0.71,2.018 1.394,4.23 2,6.625 0.459,1.81 0.828,3.544 1.125,5.188 0.379,2.437 0.623,5.325 0.5,8.562 -0.24,6.357 -1.8,11.534 -3.229,15.105 3.759,2.551 8.004,5.83 12.334,10 5.425,5.224 9.5,10.413 12.5,14.833 3.238,4.757 6.647,10.421 9.833,17 2.493,5.149 4.452,10.034 6,14.5 1.406,3.4 3.026,8.42 3.5,14.667 0.375,4.94 -0.079,9.165 -0.667,12.333 -0.686,3.399 -1.91,7.056 -4,10.667 -9.816,16.961 -31.038,19.603 -34.666,20 C 115.194,45.528 43.847,45.514 -27.5,45.5 -61.514,-29.986 -95.528,-105.472 -129.542,-180.958 h 47.834 C -54.472,-120.639 -27.236,-60.319 0,0" /></g><g
           transform="translate(1358.5208,535.0209)"
           id="g36"><path
             id="path38"
             style="fill:#e70021;fill-opacity:1;fill-rule:nonzero;stroke:none"
             d="m 0,0 c -0.087,0.326 -0.296,0.527 -0.396,0.625 -0.72,0.709 -0.067,0.318 -1.271,1.458 -0.836,0.793 -1.557,1.366 -2.271,1.938 -1.683,1.349 -1.398,1.146 -2.166,1.75 -1.53,1.203 -3.964,3.118 -7.104,5.146 -1.561,1.008 -1.366,0.797 -5,3.062 -1.313,0.819 -1.667,1.051 -3,1.875 -0.94,0.581 -2.584,1.597 -4.292,2.604 -1.618,0.955 -2.328,1.333 -4.708,2.667 -5.01,2.808 -5.202,3.004 -7.875,4.458 -2.453,1.335 -4.248,2.234 -5.98,3.104 -9.327,4.69 -12.524,6.383 -15.958,8.084 -18.915,9.367 -43.666,19.375 -43.666,19.375 -9.999,4.043 -26.152,10.323 -48.834,17.833 -50.984,16.881 -96.036,27.088 -110,30.167 -51.553,11.365 -91.299,16.382 -115.166,19.333 -3.665,0.453 -13.564,1.661 -27.995,3.117 0.054,0.004 0.107,0.004 0.161,0.008 -3.049,1.959 -7.668,4.797 -13.5,7.875 -4.883,2.578 -8.355,4.13 -16.375,7.75 -19.522,8.813 -17.236,7.87 -19.875,9 -10.118,4.334 -17.659,7.03 -28.125,10.75 -14.545,5.17 -26.259,8.841 -32.5,10.75 -15.759,4.821 -38.204,11.132 -65.75,17 -10.55,2.248 -18.462,3.709 -24.125,4.75 -30.715,5.648 -54.147,8.444 -63.745,9.514 -0.451,1.911 -11.152,7.829 -15.505,10.236 -4.378,2.421 -10.757,5.772 -18.812,9.375 -4.894,2.258 -10.041,4.499 -15.438,6.688 -6.532,2.648 -12.86,4.989 -18.937,7.062 -8.159,2.736 -19.066,6.22 -32.063,9.875 -10.684,3.005 -23.085,6.467 -39.25,9.75 -16.923,3.437 -29.549,4.968 -44.25,6.75 -5.322,0.645 -21.358,2.534 -42.75,4 -11.855,0.813 -30.743,2.072 -55.25,2 -15.977,-0.046 -27.718,-0.639 -39.5,-1.25 -30.126,-1.562 -34.719,-3.066 -73.75,-5.75 -19.033,-1.309 -18.06,-0.959 -44.5,-2.75 -27.401,-1.856 -28.777,-2.253 -41,-2.75 -15.137,-0.615 -12.436,0.019 -48.5,-0.5 -17.806,-0.256 -24.266,-0.494 -37.25,-0.25 -11.625,0.219 -20.94,0.683 -26.5,1 -4.165,0.238 -11.428,0.659 -20.75,1.5 -17.336,1.565 -27.763,3.318 -27.812,3 -0.075,-0.481 23.809,-4.633 28.437,-5.437 3.142,-0.546 6.25,-1.063 6.25,-1.063 2.631,-0.437 4.551,-0.743 5.375,-0.875 9.603,-1.536 12.768,-2.199 19.875,-3.25 2.579,-0.381 4.862,-0.693 8.688,-1.187 8.367,-1.082 31.402,-4.059 46.687,-5.688 42.422,-4.521 80,-5.5 80,-5.5 27.109,-0.706 57.322,-1.494 92.5,2.25 6.083,0.647 19.326,2.177 38.5,3.75 12.119,0.995 24.159,1.967 40.25,2.5 3.909,0.13 17.621,0.55 35.75,0.25 19.524,-0.323 34.54,-1.323 40.5,-1.75 19.398,-1.389 33.885,-3.227 45.75,-4.75 10.312,-1.324 24.335,-3.144 42.75,-6.5 12.734,-2.32 23.576,-4.647 31.938,-6.562 8.791,-2.23 17.583,-4.459 26.375,-6.688 5.287,-1.53 9.729,-2.862 13.062,-3.875 9.495,-2.886 12.608,-3.984 14.375,-4.625 3.68,-1.333 6.477,-2.472 9,-3.5 4.786,-1.949 8.771,-3.707 11.715,-5.047 -9.389,1 -16.565,1.598 -23.465,2.172 -34.92,2.906 -61.039,3.585 -68.125,3.75 -21.777,0.507 -38.47,0.223 -50.75,0 -18.743,-0.34 -32.851,-0.975 -37.791,-1.208 -17.691,-0.834 -31.415,-1.858 -37.5,-2.334 -13.778,-1.075 -15.96,-1.488 -33.167,-3 -9.127,-0.801 -11.475,-0.945 -43,-3.333 -42.192,-3.195 -42.948,-3.313 -51.667,-3.833 -8.038,-0.48 -18.914,-0.987 -40.666,-2 -23.278,-1.085 -31.053,-1.348 -36.001,-1.5 -7.93,-0.244 -15.675,-0.385 -31.166,-0.667 -17.869,-0.325 -27.699,-0.504 -41.75,-0.604 -14.481,-0.104 -25.431,-0.067 -30.604,-0.042 -5.466,0.027 -10.119,0.068 -13.646,0.104 -8.493,0.211 -15.807,0.452 -21.625,0.667 -5.384,0.199 -11.162,0.415 -18.917,0.813 -1.374,0.07 -6.869,0.354 -14.166,0.812 -5.459,0.343 -10.294,0.68 -14.355,0.979 -2.222,0.19 -5.527,0.474 -9.666,0.834 -4.233,0.367 -5.953,0.52 -8.459,0.812 -1.672,0.195 -1.912,0.244 -3.979,0.479 -3.17,0.361 -3.509,0.349 -6.751,0.713 -3.301,0.371 -4.903,0.603 -5.788,0.737 -1.53,0.232 -1.423,0.246 -2.8,0.455 -3.665,0.555 -7.254,0.87 -7.271,0.745 0,-0.027 0.164,-0.09 0.989,-0.251 1.022,-0.201 2.047,-0.405 3.074,-0.612 0.466,-0.094 0.932,-0.188 1.396,-0.282 0.443,-0.068 0.89,-0.141 1.341,-0.22 1.549,-0.271 3.027,-0.589 4.432,-0.941 1.341,-0.248 3.399,-0.632 5.92,-1.115 3.729,-0.713 4.11,-0.809 6.25,-1.208 3.966,-0.74 4.102,-0.683 8.625,-1.5 3.592,-0.648 3.75,-0.729 7.542,-1.417 2.334,-0.423 3.415,-0.599 7.75,-1.333 3.987,-0.675 7.972,-1.361 11.958,-2.042 9.859,-1.682 9.182,-1.578 10.958,-1.875 5.218,-0.87 10.054,-1.601 17.959,-2.708 17.242,-2.415 19.306,-2.435 35.249,-4.667 11.845,-1.657 12.573,-1.916 20.167,-2.833 7.261,-0.877 10.22,-1.078 21.167,-2.167 16.769,-1.667 17.206,-1.928 26.833,-2.833 5.31,-0.499 10.066,-0.879 30.833,-2.167 20.601,-1.277 30.901,-1.915 39.334,-2.333 10.768,-0.533 26.906,-1.32 46.667,-1.667 36.816,-0.646 66.071,0.588 80.5,1.334 8.089,0.418 24.004,1.257 44.833,3.166 18.424,1.689 21.622,2.467 41.333,4.167 21.507,1.855 37.252,2.615 42,2.833 15.063,0.694 26.51,0.87 35.5,1 10.611,0.154 21.801,0.317 36.667,0 11.885,-0.253 20.104,-0.684 35.667,-1.5 12.452,-0.653 24.774,-1.309 41.166,-2.666 10.157,-0.841 18.039,-1.634 25,-2.334 13.375,-1.344 20.062,-2.017 28.667,-3.166 4.655,-0.622 13.056,-1.979 29.667,-4.667 14.245,-2.305 21.467,-3.475 26.333,-4.333 15.425,-2.72 26.713,-5.053 29.667,-5.667 9.478,-1.971 16.761,-3.644 22.666,-5 9.74,-2.237 15.84,-3.752 17.5,-4.167 5.007,-1.248 9.483,-2.368 15.334,-4 7.755,-2.162 6.378,-2.003 15.166,-4.5 8.126,-2.308 12.355,-3.31 20,-5.958 2.798,-0.969 2.583,-0.956 3.875,-1.375 0.642,-0.208 1.3,-0.398 1.962,-0.584 -12.628,1.119 -27.215,2.264 -43.17,3.251 -31.527,1.95 -57.082,2.588 -73,2.833 -21.889,0.337 -63.419,0.892 -116,-2.5 -8.587,-0.554 -32.558,-2.48 -80.5,-6.333 -13.056,-1.049 -26.111,-2.117 -39.167,-3.167 -44.445,-3.575 -66.958,-5.382 -81.166,-6.333 -27.902,-1.866 -49.705,-2.92 -61.834,-3.5 -20.448,-0.978 -38.595,-1.669 -53.875,-2.167 -7.256,-0.203 -66.675,-1.848 -109.937,-2 -6.428,-0.022 -18.737,-0.034 -33.5,0.063 -21.196,0.138 -31.852,0.397 -35.813,0.5 -7.35,0.189 -12.799,0.385 -17.687,0.562 -17.392,0.63 -32.963,1.419 -38.188,1.844 -0.641,0.052 -4.153,0.344 -8.844,0.625 -0.611,0.036 -1.099,0.064 -1.343,0.078 -1.689,0.101 -4.277,0.261 -7.438,0.484 -5.395,0.382 -7.012,0.561 -15.515,1.235 -7.11,0.563 -6.964,0.516 -10.047,0.797 -1.27,0.115 -4.437,0.432 -10.719,1.062 -5.207,0.522 -5.843,0.588 -6.766,0.688 -3.614,0.389 -6.305,0.718 -9,1.047 -4.42,0.539 -6.63,0.808 -9.028,1.15 -2.605,0.372 -5.218,0.687 -7.817,1.1 0,0.001 -0.886,0.141 -2.095,0.277 -1.106,0.124 -2.595,0.257 -2.605,0.182 -0.01,-0.042 0.477,-0.146 0.947,-0.247 0.468,-0.1 0.821,-0.158 0.859,-0.165 0.677,-0.111 0.892,-0.193 2.076,-0.452 1.175,-0.258 2.266,-0.462 2.847,-0.565 0.158,-0.028 0.593,-0.105 1.2,-0.218 0.344,-0.064 0.614,-0.116 0.806,-0.153 1.012,-0.195 1.602,-0.315 2.065,-0.406 1.387,-0.271 1.394,-0.226 2.948,-0.519 0.938,-0.177 0.833,-0.173 2.032,-0.406 1.418,-0.276 1.662,-0.299 3.026,-0.557 1.441,-0.273 1.33,-0.277 3,-0.6 1.565,-0.303 1.795,-0.324 3.152,-0.588 1.412,-0.275 1.493,-0.316 3.012,-0.624 0.452,-0.091 0.93,-0.186 5.372,-1.006 1.665,-0.308 2.14,-0.395 3.047,-0.563 1.421,-0.263 2.115,-0.394 3.188,-0.594 2.771,-0.515 3.305,-0.598 6.609,-1.203 1.071,-0.196 2.599,-0.477 4.391,-0.812 3.738,-0.7 4.318,-0.827 6.578,-1.235 0.201,-0.036 1.606,-0.28 4.406,-0.765 4.724,-0.82 5.607,-0.972 7,-1.203 2.083,-0.347 1.963,-0.315 3.422,-0.563 2.592,-0.441 3.934,-0.705 5.812,-1.047 1.56,-0.283 1.702,-0.294 7.157,-1.203 6.19,-1.031 5.975,-1.011 8.406,-1.406 3.314,-0.539 5.255,-0.827 8.75,-1.359 8.312,-1.267 8.6,-1.355 17.984,-2.797 5.641,-0.867 8.462,-1.301 12.156,-1.844 6.798,-1 8.834,-1.239 22.344,-3.094 12.407,-1.704 12.016,-1.684 17.875,-2.458 4.41,-0.583 10.072,-1.328 17.5,-2.209 5.785,-0.685 5.671,-0.626 11.542,-1.333 7.32,-0.881 8.905,-1.141 14.042,-1.708 4.301,-0.475 4.814,-0.471 10.958,-1.084 8.949,-0.892 10.338,-1.146 17.458,-1.875 6.296,-0.644 6.762,-0.603 18.667,-1.666 12.139,-1.084 11.251,-1.085 20.625,-1.917 7.236,-0.642 15.348,-1.357 25.958,-2.083 5.552,-0.38 9.518,-0.607 14.917,-0.917 5.068,-0.29 11.979,-0.668 27.917,-1.417 12.985,-0.609 20.757,-0.975 31.75,-1.416 13.066,-0.525 19.599,-0.788 28,-1 12.24,-0.31 20.749,-0.322 36.416,-0.334 22.39,-0.016 33.586,-0.024 48.084,0.334 12.657,0.312 22.049,0.736 40.833,1.583 15.561,0.702 23.682,1.183 28.75,1.5 5.33,0.334 13.871,0.901 24.417,1.75 11.4,0.918 21.926,1.766 35.666,3.333 8.809,1.005 12.33,1.552 21.5,2.417 2.991,0.282 7.605,0.66 16.834,1.417 9.159,0.751 13.738,1.126 18.833,1.5 3.726,0.273 10.079,0.737 17.5,1.166 3.603,0.209 10.394,0.579 27.583,1.167 11.812,0.404 18.562,0.635 27.834,0.833 6.018,0.129 22.84,0.452 44.916,0.292 8.246,-0.06 21.534,-0.165 39.125,-0.75 4.133,-0.137 21.036,-0.718 43.5,-2.125 13.319,-0.834 23.111,-1.616 32.625,-2.375 12.639,-1.009 23.233,-1.862 37.375,-3.375 6.722,-0.719 12.062,-1.354 17.5,-2 8.945,-1.063 15.668,-1.931 28.75,-3.625 21.188,-2.743 25.75,-3.43 28.625,-3.875 1.138,-0.176 1.315,-0.206 17.375,-2.875 22.134,-3.678 23.391,-3.886 26.75,-4.5 6.697,-1.225 5.706,-1.132 20.875,-4 9.852,-1.862 10.49,-1.943 14.5,-2.75 3.243,-0.653 7.164,-1.473 20.875,-4.625 7.762,-1.784 12.854,-2.98 25.75,-6 17.615,-4.124 16.828,-3.932 17.625,-4.125 12.298,-2.973 21.074,-5.505 35,-9.541 20.391,-5.911 30.636,-8.881 43.667,-13.667 7.891,-2.899 15.126,-5.847 20,-7.833 7.547,-3.076 11.364,-4.638 13.5,-5.834 1.815,-1.016 5.236,-3.046 10.333,-5.208 1.457,-0.618 2.676,-1.088 3.5,-1.396 0.5,-0.028 1,-0.056 1.5,-0.083 C 0.027,-0.547 0.077,-0.287 0,0" /></g><g
           transform="translate(392.9167,254.25)"
           id="g40"><path
             id="path42"
             style="fill:#e70021;fill-opacity:1;fill-rule:nonzero;stroke:none"
             d="m 0,0 h -23.354 c -9.531,-20.51 -19.063,-41.021 -28.594,-61.531 h -9.719 c 9.528,20.527 19.056,41.053 28.583,61.58 -7.694,0.012 -15.388,0.023 -23.083,0.034 1.195,2.695 2.389,5.389 3.584,8.084 H 3.833 C 2.556,5.444 1.278,2.722 0,0" /></g><g
           transform="translate(475.9062,246.7187)"
           id="g44"><path
             id="path46"
             style="fill:#e70021;fill-opacity:1;fill-rule:nonzero;stroke:none"
             d="m 0,0 c -0.065,-0.409 -0.293,-1.688 -1.344,-3.781 -0.618,-1.232 -1.613,-2.93 -3.187,-4.75 -0.29,-0.335 -1.704,-1.749 -3.969,-3.032 -2.33,-1.319 -4.363,-1.796 -5.813,-2.125 -1.746,-0.395 -3.248,-0.54 -4.343,-0.593 -5.603,-0.021 -11.206,-0.042 -16.809,-0.062 3.363,7.27 6.727,14.541 10.09,21.812 C -19.583,7.458 -13.792,7.448 -8,7.437 -6.974,7.379 -1.614,6.994 -0.187,3.719 -0.083,3.48 0.002,3.22 0.062,2.938 0.144,2.227 0.192,1.202 0,0 m 10.875,9.469 c -1.899,4.034 -6.948,5.164 -9.563,5.75 -1.859,0.416 -3.429,0.495 -4.437,0.5 h -27.75 c -10.837,-23.257 -21.674,-46.514 -32.51,-69.771 h 9.604 c 4.833,10.486 9.666,20.972 14.5,31.458 0.009,0.021 0.019,0.042 0.029,0.063 5.65,-0.042 11.3,-0.084 16.95,-0.125 0.793,-0.002 1.925,-0.11 3.167,-0.604 0.525,-0.21 0.976,-0.451 1.354,-0.688 0.346,-0.242 0.891,-0.696 1.271,-1.437 0.208,-0.407 0.309,-0.789 0.385,-1.24 0.182,-1.085 0.156,-2.205 -0.052,-3.531 -0.142,-0.906 -0.403,-2.127 -0.917,-3.532 -0.567,-1.626 -1.13,-3.272 -1.687,-4.937 -0.848,-2.532 -1.66,-5.036 -2.438,-7.51 -0.701,-2.639 -1.403,-5.278 -2.104,-7.917 h 10.25 l 1.896,9.271 c 1.257,4.01 2.514,8.021 3.771,12.031 0.353,0.986 0.617,1.853 0.812,2.552 0.16,0.572 0.385,1.387 0.594,2.479 0.133,0.696 0.23,1.202 0.281,1.896 0.066,0.891 0.024,1.637 -0.031,2.167 -0.086,0.524 -0.255,1.092 -0.562,1.656 -1.415,2.591 -4.637,3.031 -5.157,3.094 -0.01,0.135 -0.021,0.271 -0.031,0.406 1.338,0.25 2.94,0.658 4.688,1.344 1.971,0.773 3.578,1.684 4.812,2.5 1.595,0.916 3.634,2.309 5.656,4.375 1.528,1.56 2.653,3.103 3.469,4.406 0.907,1.142 2.034,2.807 2.938,5 0.813,1.976 1.191,3.764 1.375,5.125 0.46,2.663 -0.184,4.413 -0.563,5.219" /></g><g
           transform="translate(567.5833,223.0833)"
           id="g48"><path
             id="path50"
             style="fill:#e70021;fill-opacity:1;fill-rule:nonzero;stroke:none"
             d="M 0,0 C -0.118,-1.329 -0.236,-2.668 -0.357,-4.079 -9.016,-4.052 -17.674,-4.026 -26.333,-4 -16.667,7.25 -7,18.5 2.667,29.75 1.591,17.88 0.695,7.839 0,0 m 2.5,39.25 c -20.667,-23.194 -41.333,-46.389 -62,-69.583 h 10 l 15.75,18 h 32.738 c -0.548,-7.524 -0.875,-13.757 -1.071,-18.084 3.5,-0.027 7,-0.055 10.5,-0.083 l 4.5,69.75 z" /></g><g
           transform="translate(641.0625,201.4583)"
           id="g52"><path
             id="path54"
             style="fill:#e70021;fill-opacity:1;fill-rule:nonzero;stroke:none"
             d="m 0,0 c 0.645,-0.401 1.487,-0.841 2.521,-1.187 1.578,-0.53 2.98,-0.634 3.958,-0.625 1.469,-0.114 3.151,-0.149 5,-0.021 2.709,0.187 5.05,0.675 6.938,1.208 1.538,0.353 3.726,1.041 6.062,2.458 1.985,1.204 3.434,2.544 4.417,3.604 0.931,1.037 1.59,2.009 2.041,2.761 0.548,0.911 1.228,2.063 1.657,3.719 0.273,1.055 0.354,1.97 0.375,2.625 -0.052,0.569 -0.214,1.528 -0.781,2.562 -0.661,1.205 -1.542,1.912 -2.032,2.25 -1.004,0.42 -2.504,1.003 -4.375,1.563 -0.904,0.27 -1.782,0.502 -5.219,1.281 -1.303,0.295 -3.024,0.681 -5.062,1.125 -2.03,0.726 -3.675,1.471 -4.875,2.062 -3.34,1.647 -4.404,2.68 -4.75,3.032 -1.003,1.018 -1.629,2.041 -2,2.75 -0.323,0.596 -0.73,1.509 -0.937,2.687 -0.227,1.286 -0.123,2.367 0,3.063 0.338,1.514 0.909,3.365 1.906,5.343 0.514,1.02 1.06,1.915 1.593,2.688 0.619,1.114 1.46,2.423 2.594,3.781 1.188,1.421 2.382,2.519 3.407,3.344 0.797,0.811 1.791,1.708 3,2.594 1.315,0.963 2.57,1.682 3.656,2.218 1.626,0.938 3.598,1.921 5.906,2.782 2.93,1.093 5.607,1.693 7.813,2.031 1.529,0.255 3.201,0.465 5,0.594 2.405,0.171 4.618,0.165 6.593,0.062 0.861,-0.076 2.142,-0.238 3.657,-0.625 2.062,-0.527 4.411,-1.127 6.531,-3 0.705,-0.623 1.772,-1.729 2.656,-3.5 0.354,-1.267 0.794,-3.461 0.438,-6.156 -0.328,-2.478 -1.192,-4.354 -1.813,-5.469 -3.375,-0.01 -6.75,-0.021 -10.125,-0.031 0.354,0.681 0.923,2 0.969,3.75 0.041,1.594 -0.369,2.839 -0.656,3.531 -0.413,0.502 -0.974,1.073 -1.719,1.594 -1.997,1.397 -4.086,1.578 -5.094,1.594 -1.856,0.253 -4.445,0.404 -7.469,-0.063 -2.524,-0.389 -4.606,-1.093 -6.156,-1.75 -1.318,-0.472 -3.083,-1.261 -4.938,-2.594 -1.756,-1.262 -3.019,-2.601 -3.875,-3.656 -0.924,-1.362 -1.524,-2.549 -1.906,-3.406 -0.447,-1.005 -0.649,-1.678 -0.75,-2.406 -0.08,-0.577 -0.079,-1.065 -0.062,-1.407 0.03,-0.445 0.155,-1.395 0.812,-2.343 0.459,-0.662 0.995,-1.062 1.344,-1.282 1.229,-0.489 2.458,-0.979 3.687,-1.468 2.569,-0.979 4.716,-1.638 6.219,-2.063 3.235,-0.914 5.195,-1.223 8.5,-2.437 1.408,-0.518 2.54,-1.008 3.282,-1.344 1.101,-0.391 4.215,-1.665 5.781,-4.844 0.368,-0.747 0.588,-1.472 0.719,-2.125 0.12,-0.853 0.219,-2.118 0.031,-3.625 C 44.264,15.591 43.812,14.413 43.313,13.135 42.552,11.19 41.75,9.826 41.063,8.667 40.321,7.418 39.271,5.8 37.844,4.01 36.481,2.34 34.602,0.348 32.104,-1.583 c -3.049,-2.358 -5.989,-3.829 -8.25,-4.75 -1.373,-0.56 -2.86,-1.104 -4.458,-1.604 -2.908,-0.912 -5.627,-1.507 -8.063,-1.896 -1.438,-0.167 -3.005,-0.289 -4.687,-0.334 -1.902,-0.05 -3.667,0.007 -5.271,0.125 -1.826,-0.105 -5.65,-0.055 -9.458,2.23 -1.414,0.848 -2.502,1.809 -3.313,2.666 -0.349,0.431 -0.799,1.063 -1.187,1.896 -0.12,0.257 -0.558,1.229 -0.771,2.625 -0.385,2.529 0.208,4.882 0.604,6.396 0.388,1.484 1.058,3.509 2.271,5.771 H -0.437 C -0.799,10.604 -1.16,9.667 -1.521,8.729 -2.06,7.104 -2.114,5.732 -2.083,4.875 -2.044,3.776 -1.986,2.588 -1.229,1.375 -0.817,0.715 -0.337,0.27 0,0" /></g><g
           transform="translate(785.4375,238.6875)"
           id="g56"><path
             id="path58"
             style="fill:#e70021;fill-opacity:1;fill-rule:nonzero;stroke:none"
             d="m 0,0 c -4.963,-6.136 -12.14,-6.781 -13.438,-6.875 h -16.717 c 0.01,0.021 0.02,0.042 0.03,0.063 3.417,7.437 6.833,14.875 10.25,22.312 5.84,0.021 11.681,0.042 17.521,0.063 0.43,-0.034 1.015,-0.11 1.687,-0.292 0.501,-0.136 1.301,-0.359 2.188,-0.917 0.573,-0.36 1.348,-0.847 1.917,-1.812 C 3.915,11.732 4.031,10.951 4.062,10.5 3.942,8.715 3.391,4.193 0,0 M 14.583,17.333 C 11.999,23.26 3.445,23.734 3.063,23.75 h -28.75 L -58.125,-46 h 9.5 c 4.8,10.223 9.599,20.445 14.399,30.668 4.839,0.034 9.678,0.069 14.518,0.103 3.365,-0.077 10.539,0.222 18.146,4.416 5.836,3.219 9.459,7.369 11.375,9.938 1.275,1.637 2.95,4.184 4.125,7.625 0.919,2.694 1.248,5.104 1.354,6.917 0.021,1.606 -0.341,2.823 -0.709,3.666" /></g><g
           transform="translate(896.5834,240)"
           id="g60"><path
             id="path62"
             style="fill:#e70021;fill-opacity:1;fill-rule:nonzero;stroke:none"
             d="m 0,0 c -0.32,-1.614 -0.825,-3.177 -1.333,-4.75 -0.503,-1.556 -0.979,-2.838 -1.334,-3.75 -0.483,-1.211 -1.023,-2.463 -1.625,-3.75 -1.011,-2.16 -2.067,-4.132 -3.12,-5.919 -0.005,0.004 -0.01,0.009 -0.015,0.013 -0.733,-1.446 -1.665,-3.103 -2.844,-4.875 -0.069,-0.104 -1.577,-2.36 -3.312,-4.406 -3.943,-4.651 -8.964,-8.113 -10.875,-9.376 -1.833,-0.983 -4.212,-2.026 -7.094,-2.75 -5.468,-1.372 -10.175,-0.952 -13.094,-0.437 -1.022,0.144 -3.503,0.64 -5.594,2.687 -3.785,3.709 -2.811,9.095 -2.718,9.563 0.173,1.577 0.493,3.687 1.125,6.125 0.836,3.224 1.832,5.521 2.75,7.625 1.202,2.757 2.796,5.897 4.916,9.208 1.89,2.952 3.826,5.458 5.625,7.542 1.394,2.093 3.841,5.183 7.75,7.833 5.813,3.94 11.599,4.698 14.375,4.875 2.698,0.466 4.875,0.292 6.25,0.084 2.378,-0.36 6.961,-1.053 9.209,-4.667 C -0.069,9.445 0.174,8.01 0.25,7.125 0.605,4.034 0.32,1.615 0,0 M 10.625,9.208 C 10.581,10.543 10.321,12.876 9,15.375 7.014,19.133 3.883,20.895 2.667,21.5 c -1.483,0.689 -3.327,1.386 -5.5,1.875 -4.081,0.919 -7.608,0.72 -10,0.375 -3.216,-0.247 -7.756,-0.951 -12.834,-2.958 -5.414,-2.141 -9.394,-4.955 -11.958,-7.084 -2.856,-2.163 -6.506,-5.304 -10.167,-9.625 -2.864,-3.38 -5.034,-6.655 -6.666,-9.5 -2.557,-4.135 -5.309,-9.628 -7.167,-16.416 -0.714,-2.61 -1.207,-5.085 -1.542,-7.375 -0.242,-1.469 -0.445,-3.806 0.115,-6.573 0.179,-0.886 0.83,-3.756 2.531,-6.219 3.954,-5.723 11.566,-6.329 12.75,-6.406 3.908,-0.467 9.304,-0.579 15.375,1 2.047,0.532 3.894,1.184 5.531,1.875 2.429,1.042 5.099,2.385 7.875,4.125 5.762,3.61 9.988,7.683 12.938,11.062 1.257,1.51 2.522,3.113 3.781,4.813 0.505,0.681 0.995,1.359 1.469,2.031 -0.006,0.005 -0.012,0.009 -0.018,0.014 1.367,1.962 2.782,4.201 4.153,6.736 1.636,3.024 2.897,5.886 3.875,8.458 1.044,2.257 2.198,5.341 2.875,9.125 0.582,3.253 0.65,6.119 0.542,8.375" /></g><g
           transform="translate(962.577,223.8608)"
           id="g64"><path
             id="path66"
             style="fill:#e70021;fill-opacity:1;fill-rule:nonzero;stroke:none"
             d="m 0,0 c 4.635,10.021 9.271,20.042 13.906,30.062 5.792,-0.01 11.584,-0.02 17.375,-0.031 1.026,-0.058 6.386,-0.444 7.813,-3.719 0.104,-0.239 0.189,-0.498 0.25,-0.781 0.081,-0.711 0.129,-1.735 -0.063,-2.937 C 39.216,22.185 38.988,20.906 37.938,18.812 37.319,17.581 36.324,15.883 34.75,14.063 34.461,13.728 33.046,12.314 30.781,11.031 28.451,9.712 26.418,9.235 24.969,8.906 23.223,8.511 21.72,8.366 20.625,8.313 14.979,8.292 9.333,8.271 3.688,8.25 2.458,5.521 1.229,2.792 0,0.062 5.66,0.021 11.319,-0.021 16.979,-0.062 c 0.794,-0.002 1.926,-0.11 3.167,-0.605 0.525,-0.209 0.976,-0.451 1.354,-0.687 0.346,-0.242 0.892,-0.697 1.271,-1.438 0.208,-0.406 0.309,-0.788 0.385,-1.239 0.183,-1.085 0.156,-2.206 -0.052,-3.531 -0.142,-0.906 -0.403,-2.127 -0.917,-3.532 -0.567,-1.626 -1.129,-3.272 -1.687,-4.937 -0.848,-2.532 -1.66,-5.036 -2.438,-7.511 -0.701,-2.639 -1.402,-5.277 -2.104,-7.916 h 10.25 c 0.632,3.09 1.264,6.18 1.896,9.271 1.257,4.01 2.514,8.02 3.771,12.031 0.354,0.986 0.618,1.853 0.813,2.552 0.159,0.571 0.384,1.386 0.593,2.479 0.133,0.695 0.23,1.202 0.282,1.896 0.065,0.89 0.023,1.637 -0.032,2.167 -0.086,0.524 -0.255,1.092 -0.562,1.656 -1.414,2.591 -4.637,3.031 -5.157,3.094 -0.01,0.135 -0.02,0.27 -0.031,0.406 1.338,0.25 2.941,0.658 4.688,1.343 1.971,0.774 3.578,1.684 4.812,2.5 1.596,0.917 3.634,2.31 5.657,4.376 1.527,1.56 2.652,3.102 3.468,4.406 0.908,1.142 2.035,2.807 2.938,5 0.814,1.976 1.192,3.764 1.375,5.125 0.46,2.663 -0.183,4.413 -0.563,5.219 -1.899,4.033 -6.948,5.164 -9.562,5.75 -1.86,0.416 -3.43,0.495 -4.438,0.5 H 8.406 C -2.431,15.056 -13.267,-8.201 -24.104,-31.458 H -14.5 C -9.667,-20.972 -4.833,-10.486 0,0" /></g><g
           transform="translate(1116.8956,254.2649)"
           id="g68"><path
             id="path70"
             style="fill:#e70021;fill-opacity:1;fill-rule:nonzero;stroke:none"
             d="m 0,0 h -23.354 c -9.531,-20.51 -19.063,-41.021 -28.594,-61.531 h -9.719 c 9.528,20.527 19.056,41.053 28.583,61.58 -7.694,0.012 -15.388,0.023 -23.083,0.034 1.195,2.695 2.389,5.389 3.584,8.084 H 3.833 C 2.556,5.444 1.278,2.722 0,0" /></g><g
           transform="translate(1178.7917,262.4167)"
           id="g72"><path
             id="path74"
             style="fill:#e70021;fill-opacity:1;fill-rule:nonzero;stroke:none"
             d="m 0,0 h -9.563 c -6.67,-13.942 -13.319,-28.061 -19.94,-42.357 -4.257,-9.192 -8.45,-18.344 -12.58,-27.456 3.243,-0.013 6.486,-0.027 9.729,-0.041 C -21.57,-46.569 -10.785,-23.285 0,0" /></g></g></g></g></svg>